<mxfile host="app.diagrams.net" agent="Mozilla/5.0 (Windows NT 10.0; Win64; x64) AppleWebKit/537.36 (KHTML, like Gecko) Chrome/139.0.0.0 Safari/537.36" version="28.0.7">
  <diagram name="Page-1" id="omOHPllpFwhAGLh-UTjf">
    <mxGraphModel dx="1123" dy="661" grid="1" gridSize="10" guides="1" tooltips="1" connect="1" arrows="1" fold="1" page="1" pageScale="1" pageWidth="1169" pageHeight="827" math="0" shadow="0">
      <root>
        <mxCell id="0" />
        <mxCell id="1" parent="0" />
        <mxCell id="ucC79e3HvEud2j4dHQeN-9" value="" style="whiteSpace=wrap;html=1;aspect=fixed;fillColor=none;" vertex="1" parent="1">
          <mxGeometry x="600" y="190" width="260" height="260" as="geometry" />
        </mxCell>
        <mxCell id="ucC79e3HvEud2j4dHQeN-10" value="" style="group" vertex="1" connectable="0" parent="1">
          <mxGeometry x="60" y="190" width="260" height="260" as="geometry" />
        </mxCell>
        <mxCell id="ucC79e3HvEud2j4dHQeN-1" value="" style="whiteSpace=wrap;html=1;aspect=fixed;fillColor=none;" vertex="1" parent="ucC79e3HvEud2j4dHQeN-10">
          <mxGeometry width="260" height="260" as="geometry" />
        </mxCell>
        <mxCell id="ucC79e3HvEud2j4dHQeN-3" value="Interrupt Sub Routine (ISR)" style="rounded=0;whiteSpace=wrap;html=1;" vertex="1" parent="ucC79e3HvEud2j4dHQeN-10">
          <mxGeometry x="15" y="10" width="90" height="50" as="geometry" />
        </mxCell>
        <mxCell id="ucC79e3HvEud2j4dHQeN-4" value="Arduino Code" style="rounded=0;whiteSpace=wrap;html=1;" vertex="1" parent="ucC79e3HvEud2j4dHQeN-10">
          <mxGeometry x="15" y="130" width="235" height="120" as="geometry" />
        </mxCell>
        <mxCell id="ucC79e3HvEud2j4dHQeN-5" value="SPI Communication" style="rounded=0;whiteSpace=wrap;html=1;" vertex="1" parent="ucC79e3HvEud2j4dHQeN-10">
          <mxGeometry x="135" y="10" width="90" height="50" as="geometry" />
        </mxCell>
        <mxCell id="ucC79e3HvEud2j4dHQeN-6" value="TimerOne.h" style="rounded=0;whiteSpace=wrap;html=1;" vertex="1" parent="ucC79e3HvEud2j4dHQeN-10">
          <mxGeometry x="15" y="70" width="90" height="50" as="geometry" />
        </mxCell>
        <mxCell id="ucC79e3HvEud2j4dHQeN-7" value="mcp_can.h" style="rounded=0;whiteSpace=wrap;html=1;" vertex="1" parent="ucC79e3HvEud2j4dHQeN-10">
          <mxGeometry x="180" y="70" width="70" height="50" as="geometry" />
        </mxCell>
        <mxCell id="ucC79e3HvEud2j4dHQeN-8" value="spi.h" style="rounded=0;whiteSpace=wrap;html=1;" vertex="1" parent="ucC79e3HvEud2j4dHQeN-10">
          <mxGeometry x="120" y="70" width="50" height="50" as="geometry" />
        </mxCell>
      </root>
    </mxGraphModel>
  </diagram>
</mxfile>
